<mxfile host="Electron" modified="2023-04-14T05:08:28.054Z" agent="Mozilla/5.0 (Windows NT 10.0; Win64; x64) AppleWebKit/537.36 (KHTML, like Gecko) draw.io/21.1.2 Chrome/106.0.5249.199 Electron/21.4.3 Safari/537.36" etag="t6qC6AfSfF8BUmg-an9T" version="21.1.2" type="device">
  <diagram name="Page-1" id="64c3da0e-402f-94eb-ee01-a36477274f13">
    <mxGraphModel dx="340" dy="1362" grid="1" gridSize="10" guides="1" tooltips="1" connect="1" arrows="1" fold="1" page="1" pageScale="1" pageWidth="1169" pageHeight="826" background="none" math="0" shadow="0">
      <root>
        <mxCell id="0" />
        <mxCell id="1" parent="0" />
        <mxCell id="2" value="A(I)SSISTANT" style="whiteSpace=wrap;rounded=1;shadow=1;fillColor=#f8cecc;strokeColor=#b85450;fontStyle=1;fontSize=24" parent="1" vertex="1">
          <mxGeometry x="1000" y="50" width="340" height="60" as="geometry" />
        </mxCell>
        <mxCell id="3" value="HAZIRLIK   AŞAMASI" style="whiteSpace=wrap;rounded=1;fillColor=#F2931E;strokeColor=none;shadow=1;fontColor=#FFFFFF;fontStyle=1;fontSize=14" parent="1" vertex="1">
          <mxGeometry x="371" y="170" width="190" height="60" as="geometry" />
        </mxCell>
        <mxCell id="4" value="PLANLAMA AŞAMASI" style="whiteSpace=wrap;rounded=1;fillColor=#F2931E;strokeColor=none;shadow=1;fontColor=#FFFFFF;fontStyle=1;fontSize=14;align=center;" parent="1" vertex="1">
          <mxGeometry x="664" y="170" width="170" height="60" as="geometry" />
        </mxCell>
        <mxCell id="5" value="SİSTEM GELİŞTİRME AŞAMASI" style="whiteSpace=wrap;rounded=1;fillColor=#F2931E;strokeColor=none;shadow=1;fontColor=#FFFFFF;fontStyle=1;fontSize=14" parent="1" vertex="1">
          <mxGeometry x="1746" y="169.9999999999998" width="140" height="60" as="geometry" />
        </mxCell>
        <mxCell id="6" value="ANALİZ  AŞAMASI" style="whiteSpace=wrap;rounded=1;fillColor=#F2931E;strokeColor=none;shadow=1;fontColor=#FFFFFF;fontStyle=1;fontSize=14;align=center;" parent="1" vertex="1">
          <mxGeometry x="921" y="170" width="180" height="60" as="geometry" />
        </mxCell>
        <mxCell id="7" value="TASARIM AŞAMASI" style="whiteSpace=wrap;rounded=1;fillColor=#F2931E;strokeColor=none;shadow=1;fontColor=#FFFFFF;fontStyle=1;fontSize=14" parent="1" vertex="1">
          <mxGeometry x="1258" y="169.9999999999998" width="140" height="60" as="geometry" />
        </mxCell>
        <mxCell id="8" value="PROTOTİP HAZIRLAMA AŞAMASI" style="whiteSpace=wrap;rounded=1;fillColor=#F2931E;strokeColor=none;shadow=1;fontColor=#FFFFFF;fontStyle=1;fontSize=14" parent="1" vertex="1">
          <mxGeometry x="1502" y="169.9999999999998" width="140" height="60" as="geometry" />
        </mxCell>
        <mxCell id="10" value="SİSTEM İSTEĞİ" style="whiteSpace=wrap;rounded=1;fillColor=#FFCE9F;strokeColor=none;shadow=1;fontColor=#000000;" parent="1" vertex="1">
          <mxGeometry x="406" y="310.0000000000001" width="120" height="60" as="geometry" />
        </mxCell>
        <mxCell id="23" value="ÖN DEĞERLENDİRME" style="whiteSpace=wrap;rounded=1;fillColor=#FFCE9F;strokeColor=none;shadow=1;fontColor=#000000;fontStyle=0" parent="1" vertex="1">
          <mxGeometry x="405.99999999999994" y="400.0000000000001" width="120" height="60" as="geometry" />
        </mxCell>
        <mxCell id="24" value="PROJE EKİBİ OLUŞTURMA" style="whiteSpace=wrap;rounded=1;fillColor=#FFCE9F;strokeColor=none;shadow=1;fontColor=#000000;fontStyle=0" parent="1" vertex="1">
          <mxGeometry x="406.0000000000001" y="480.0000000000001" width="120" height="60" as="geometry" />
        </mxCell>
        <mxCell id="25" value="PROJE BEYANI HAZIRLAMA" style="whiteSpace=wrap;rounded=1;fillColor=#FFCE9F;strokeColor=none;shadow=1;fontColor=#000000;fontStyle=0" parent="1" vertex="1">
          <mxGeometry x="406.00000000000006" y="560.0000000000001" width="120" height="60" as="geometry" />
        </mxCell>
        <mxCell id="26" value="FİZİBİLİTE RAPORU OLUŞTURMA" style="whiteSpace=wrap;rounded=1;fillColor=#FFCE9F;strokeColor=none;shadow=1;fontColor=#000000;fontStyle=0" parent="1" vertex="1">
          <mxGeometry x="406.0000000000002" y="640.0000000000001" width="120" height="60" as="geometry" />
        </mxCell>
        <mxCell id="103" value="" style="edgeStyle=elbowEdgeStyle;elbow=vertical;rounded=0;fontColor=#000000;endArrow=none;endFill=0;strokeWidth=8;strokeColor=#23445D;" parent="1" source="3" target="10" edge="1">
          <mxGeometry width="100" height="100" relative="1" as="geometry">
            <mxPoint x="271" y="290" as="sourcePoint" />
            <mxPoint x="371" y="190" as="targetPoint" />
          </mxGeometry>
        </mxCell>
        <mxCell id="105" value="" style="edgeStyle=elbowEdgeStyle;elbow=horizontal;rounded=0;fontColor=#000000;endArrow=none;endFill=0;strokeWidth=8;strokeColor=#23445D;" parent="1" source="10" target="23" edge="1">
          <mxGeometry width="100" height="100" relative="1" as="geometry">
            <mxPoint x="261" y="480" as="sourcePoint" />
            <mxPoint x="361" y="380" as="targetPoint" />
            <Array as="points">
              <mxPoint x="391" y="385" />
            </Array>
          </mxGeometry>
        </mxCell>
        <mxCell id="106" value="" style="edgeStyle=elbowEdgeStyle;elbow=horizontal;rounded=0;fontColor=#000000;endArrow=none;endFill=0;strokeWidth=8;strokeColor=#23445D;" parent="1" source="10" target="24" edge="1">
          <mxGeometry width="100" height="100" relative="1" as="geometry">
            <mxPoint x="331" y="340" as="sourcePoint" />
            <mxPoint x="331" y="440" as="targetPoint" />
            <Array as="points">
              <mxPoint x="391" y="410" />
              <mxPoint x="301" y="400" />
            </Array>
          </mxGeometry>
        </mxCell>
        <mxCell id="109" value="" style="edgeStyle=elbowEdgeStyle;elbow=horizontal;rounded=0;fontColor=#000000;endArrow=none;endFill=0;strokeWidth=8;strokeColor=#23445D;" parent="1" source="10" target="26" edge="1">
          <mxGeometry width="100" height="100" relative="1" as="geometry">
            <mxPoint x="351" y="360" as="sourcePoint" />
            <mxPoint x="351" y="460" as="targetPoint" />
            <Array as="points">
              <mxPoint x="391" y="390" />
              <mxPoint x="341" y="510" />
            </Array>
          </mxGeometry>
        </mxCell>
        <mxCell id="110" value="" style="edgeStyle=elbowEdgeStyle;elbow=horizontal;rounded=0;fontColor=#000000;endArrow=none;endFill=0;strokeWidth=8;strokeColor=#23445D;" parent="1" source="10" target="25" edge="1">
          <mxGeometry width="100" height="100" relative="1" as="geometry">
            <mxPoint x="361" y="370" as="sourcePoint" />
            <mxPoint x="361" y="470" as="targetPoint" />
            <Array as="points">
              <mxPoint x="391" y="390" />
              <mxPoint x="381" y="390" />
              <mxPoint x="371" y="390" />
              <mxPoint x="391" y="390" />
              <mxPoint x="401" y="390" />
              <mxPoint x="341" y="520" />
              <mxPoint x="301" y="430" />
            </Array>
          </mxGeometry>
        </mxCell>
        <mxCell id="229" value="" style="edgeStyle=elbowEdgeStyle;elbow=vertical;rounded=0;fontColor=#000000;endArrow=none;endFill=0;strokeWidth=8;strokeColor=#23445D;" parent="1" source="2" target="3" edge="1">
          <mxGeometry width="100" height="100" relative="1" as="geometry">
            <mxPoint x="540" y="140" as="sourcePoint" />
            <mxPoint x="640" y="40" as="targetPoint" />
          </mxGeometry>
        </mxCell>
        <mxCell id="230" value="" style="edgeStyle=elbowEdgeStyle;elbow=vertical;rounded=0;fontColor=#000000;endArrow=none;endFill=0;strokeWidth=8;strokeColor=#23445D;" parent="1" source="2" target="4" edge="1">
          <mxGeometry width="100" height="100" relative="1" as="geometry">
            <mxPoint x="550" y="150" as="sourcePoint" />
            <mxPoint x="650" y="50" as="targetPoint" />
          </mxGeometry>
        </mxCell>
        <mxCell id="231" value="" style="edgeStyle=elbowEdgeStyle;elbow=vertical;rounded=0;fontColor=#000000;endArrow=none;endFill=0;strokeWidth=8;strokeColor=#23445D;" parent="1" source="2" target="6" edge="1">
          <mxGeometry width="100" height="100" relative="1" as="geometry">
            <mxPoint x="560" y="160" as="sourcePoint" />
            <mxPoint x="660" y="60" as="targetPoint" />
          </mxGeometry>
        </mxCell>
        <mxCell id="232" value="" style="edgeStyle=elbowEdgeStyle;elbow=vertical;rounded=0;fontColor=#000000;endArrow=none;endFill=0;strokeWidth=8;strokeColor=#23445D;" parent="1" source="2" target="7" edge="1">
          <mxGeometry width="100" height="100" relative="1" as="geometry">
            <mxPoint x="570" y="170" as="sourcePoint" />
            <mxPoint x="670" y="70" as="targetPoint" />
          </mxGeometry>
        </mxCell>
        <mxCell id="233" value="" style="edgeStyle=elbowEdgeStyle;elbow=vertical;rounded=0;fontColor=#000000;endArrow=none;endFill=0;strokeWidth=8;strokeColor=#23445D;" parent="1" source="2" target="8" edge="1">
          <mxGeometry width="100" height="100" relative="1" as="geometry">
            <mxPoint x="580" y="180" as="sourcePoint" />
            <mxPoint x="680" y="80" as="targetPoint" />
          </mxGeometry>
        </mxCell>
        <mxCell id="234" value="" style="edgeStyle=elbowEdgeStyle;elbow=vertical;rounded=0;fontColor=#000000;endArrow=none;endFill=0;strokeWidth=8;strokeColor=#23445D;" parent="1" source="2" target="5" edge="1">
          <mxGeometry width="100" height="100" relative="1" as="geometry">
            <mxPoint x="590" y="190" as="sourcePoint" />
            <mxPoint x="690" y="90" as="targetPoint" />
          </mxGeometry>
        </mxCell>
        <mxCell id="BaqFEa5djKBgRJgzF-M2-242" value="İŞ PAKETLERİNİN BELİRLENMESİ" style="whiteSpace=wrap;rounded=1;fillColor=#FFCE9F;strokeColor=none;shadow=1;fontColor=#000000;" parent="1" vertex="1">
          <mxGeometry x="689" y="310.0000000000001" width="120" height="60" as="geometry" />
        </mxCell>
        <mxCell id="BaqFEa5djKBgRJgzF-M2-243" value="SORUMLULARIN ATANMASI" style="whiteSpace=wrap;rounded=1;fillColor=#FFCE9F;strokeColor=none;shadow=1;fontColor=#000000;fontStyle=0" parent="1" vertex="1">
          <mxGeometry x="689" y="395.0000000000001" width="120" height="60" as="geometry" />
        </mxCell>
        <mxCell id="BaqFEa5djKBgRJgzF-M2-244" value="İŞ KIRILIMININ OLUŞTURULMASI" style="whiteSpace=wrap;rounded=1;fillColor=#FFCE9F;strokeColor=none;shadow=1;fontColor=#000000;fontStyle=0" parent="1" vertex="1">
          <mxGeometry x="689.0000000000001" y="475.0000000000001" width="120" height="60" as="geometry" />
        </mxCell>
        <mxCell id="BaqFEa5djKBgRJgzF-M2-245" value="GANT ŞEMASININ HAZIRLANMASI" style="whiteSpace=wrap;rounded=1;fillColor=#FFCE9F;strokeColor=none;shadow=1;fontColor=#000000;fontStyle=0" parent="1" vertex="1">
          <mxGeometry x="689" y="555.0000000000001" width="120" height="60" as="geometry" />
        </mxCell>
        <mxCell id="BaqFEa5djKBgRJgzF-M2-247" value="" style="edgeStyle=elbowEdgeStyle;elbow=horizontal;rounded=0;fontColor=#000000;endArrow=none;endFill=0;strokeWidth=8;strokeColor=#23445D;" parent="1" source="BaqFEa5djKBgRJgzF-M2-242" target="BaqFEa5djKBgRJgzF-M2-243" edge="1">
          <mxGeometry width="100" height="100" relative="1" as="geometry">
            <mxPoint x="544" y="475" as="sourcePoint" />
            <mxPoint x="644" y="375" as="targetPoint" />
            <Array as="points">
              <mxPoint x="674" y="380" />
            </Array>
          </mxGeometry>
        </mxCell>
        <mxCell id="BaqFEa5djKBgRJgzF-M2-248" value="" style="edgeStyle=elbowEdgeStyle;elbow=horizontal;rounded=0;fontColor=#000000;endArrow=none;endFill=0;strokeWidth=8;strokeColor=#23445D;" parent="1" source="BaqFEa5djKBgRJgzF-M2-242" target="BaqFEa5djKBgRJgzF-M2-244" edge="1">
          <mxGeometry width="100" height="100" relative="1" as="geometry">
            <mxPoint x="614" y="335" as="sourcePoint" />
            <mxPoint x="614" y="435" as="targetPoint" />
            <Array as="points">
              <mxPoint x="674" y="380" />
              <mxPoint x="624" y="435" />
              <mxPoint x="584" y="395" />
            </Array>
          </mxGeometry>
        </mxCell>
        <mxCell id="BaqFEa5djKBgRJgzF-M2-250" value="" style="edgeStyle=elbowEdgeStyle;elbow=horizontal;rounded=0;fontColor=#000000;endArrow=none;endFill=0;strokeWidth=8;strokeColor=#23445D;" parent="1" source="BaqFEa5djKBgRJgzF-M2-242" target="BaqFEa5djKBgRJgzF-M2-245" edge="1">
          <mxGeometry width="100" height="100" relative="1" as="geometry">
            <mxPoint x="644" y="365" as="sourcePoint" />
            <mxPoint x="644" y="465" as="targetPoint" />
            <Array as="points">
              <mxPoint x="674" y="380" />
              <mxPoint x="654" y="380" />
              <mxPoint x="624" y="515" />
              <mxPoint x="584" y="425" />
            </Array>
          </mxGeometry>
        </mxCell>
        <mxCell id="BaqFEa5djKBgRJgzF-M2-252" value="" style="edgeStyle=elbowEdgeStyle;elbow=vertical;rounded=0;fontColor=#000000;endArrow=none;endFill=0;strokeWidth=8;strokeColor=#23445D;entryX=0.5;entryY=0;entryDx=0;entryDy=0;" parent="1" target="BaqFEa5djKBgRJgzF-M2-242" edge="1">
          <mxGeometry width="100" height="100" relative="1" as="geometry">
            <mxPoint x="748.5" y="230" as="sourcePoint" />
            <mxPoint x="749" y="290" as="targetPoint" />
          </mxGeometry>
        </mxCell>
        <mxCell id="BaqFEa5djKBgRJgzF-M2-254" value="GEREKSİNİM ANALİZİ" style="whiteSpace=wrap;rounded=1;fillColor=#FFCE9F;strokeColor=none;shadow=1;fontColor=#000000;" parent="1" vertex="1">
          <mxGeometry x="951" y="310.0000000000001" width="120" height="60" as="geometry" />
        </mxCell>
        <mxCell id="BaqFEa5djKBgRJgzF-M2-255" value="SÜREÇ MODELLEME" style="whiteSpace=wrap;rounded=1;fillColor=#FFCE9F;strokeColor=none;shadow=1;fontColor=#000000;fontStyle=0" parent="1" vertex="1">
          <mxGeometry x="951" y="395.0000000000001" width="120" height="60" as="geometry" />
        </mxCell>
        <mxCell id="BaqFEa5djKBgRJgzF-M2-256" value="VERİ MODELLEME" style="whiteSpace=wrap;rounded=1;fillColor=#FFCE9F;strokeColor=none;shadow=1;fontColor=#000000;fontStyle=0" parent="1" vertex="1">
          <mxGeometry x="951.0000000000001" y="475.0000000000001" width="120" height="60" as="geometry" />
        </mxCell>
        <mxCell id="BaqFEa5djKBgRJgzF-M2-257" value="MANTIK MODELLEME" style="whiteSpace=wrap;rounded=1;fillColor=#FFCE9F;strokeColor=none;shadow=1;fontColor=#000000;fontStyle=0" parent="1" vertex="1">
          <mxGeometry x="951" y="555.0000000000001" width="120" height="60" as="geometry" />
        </mxCell>
        <mxCell id="BaqFEa5djKBgRJgzF-M2-258" value="" style="edgeStyle=elbowEdgeStyle;elbow=horizontal;rounded=0;fontColor=#000000;endArrow=none;endFill=0;strokeWidth=8;strokeColor=#23445D;" parent="1" edge="1">
          <mxGeometry width="100" height="100" relative="1" as="geometry">
            <mxPoint x="952" y="340" as="sourcePoint" />
            <mxPoint x="952" y="425" as="targetPoint" />
            <Array as="points">
              <mxPoint x="942" y="390" />
              <mxPoint x="887" y="385" />
            </Array>
          </mxGeometry>
        </mxCell>
        <mxCell id="BaqFEa5djKBgRJgzF-M2-259" value="" style="edgeStyle=elbowEdgeStyle;elbow=horizontal;rounded=0;fontColor=#000000;endArrow=none;endFill=0;strokeWidth=8;strokeColor=#23445D;" parent="1" edge="1">
          <mxGeometry width="100" height="100" relative="1" as="geometry">
            <mxPoint x="952" y="340" as="sourcePoint" />
            <mxPoint x="952" y="505" as="targetPoint" />
            <Array as="points">
              <mxPoint x="942" y="400" />
              <mxPoint x="887" y="435" />
              <mxPoint x="847" y="395" />
            </Array>
          </mxGeometry>
        </mxCell>
        <mxCell id="BaqFEa5djKBgRJgzF-M2-260" value="" style="edgeStyle=elbowEdgeStyle;elbow=horizontal;rounded=0;fontColor=#000000;endArrow=none;endFill=0;strokeWidth=8;strokeColor=#23445D;" parent="1" edge="1">
          <mxGeometry width="100" height="100" relative="1" as="geometry">
            <mxPoint x="952" y="340" as="sourcePoint" />
            <mxPoint x="952" y="585" as="targetPoint" />
            <Array as="points">
              <mxPoint x="942" y="380" />
              <mxPoint x="887" y="515" />
              <mxPoint x="847" y="425" />
            </Array>
          </mxGeometry>
        </mxCell>
        <mxCell id="BaqFEa5djKBgRJgzF-M2-261" value="" style="edgeStyle=elbowEdgeStyle;elbow=vertical;rounded=0;fontColor=#000000;endArrow=none;endFill=0;strokeWidth=8;strokeColor=#23445D;entryX=0.5;entryY=0;entryDx=0;entryDy=0;" parent="1" target="BaqFEa5djKBgRJgzF-M2-254" edge="1">
          <mxGeometry width="100" height="100" relative="1" as="geometry">
            <mxPoint x="1010.5" y="230" as="sourcePoint" />
            <mxPoint x="1011" y="290" as="targetPoint" />
          </mxGeometry>
        </mxCell>
        <mxCell id="BaqFEa5djKBgRJgzF-M2-262" value="MİMARİ TASARIM" style="whiteSpace=wrap;rounded=1;fillColor=#FFCE9F;strokeColor=none;shadow=1;fontColor=#000000;" parent="1" vertex="1">
          <mxGeometry x="1268" y="310.0000000000001" width="120" height="60" as="geometry" />
        </mxCell>
        <mxCell id="BaqFEa5djKBgRJgzF-M2-263" value="İNSAN BİLGİSAYAR ETKİLEŞİMİ" style="whiteSpace=wrap;rounded=1;fillColor=#FFCE9F;strokeColor=none;shadow=1;fontColor=#000000;fontStyle=0" parent="1" vertex="1">
          <mxGeometry x="1268" y="397.5000000000001" width="120" height="60" as="geometry" />
        </mxCell>
        <mxCell id="BaqFEa5djKBgRJgzF-M2-264" value="ARAYÜZ TASARIMI" style="whiteSpace=wrap;rounded=1;fillColor=#FFCE9F;strokeColor=none;shadow=1;fontColor=#000000;fontStyle=0" parent="1" vertex="1">
          <mxGeometry x="1268" y="477.5000000000001" width="120" height="60" as="geometry" />
        </mxCell>
        <mxCell id="BaqFEa5djKBgRJgzF-M2-266" value="" style="edgeStyle=elbowEdgeStyle;elbow=horizontal;rounded=0;fontColor=#000000;endArrow=none;endFill=0;strokeWidth=8;strokeColor=#23445D;" parent="1" source="BaqFEa5djKBgRJgzF-M2-262" target="BaqFEa5djKBgRJgzF-M2-263" edge="1">
          <mxGeometry width="100" height="100" relative="1" as="geometry">
            <mxPoint x="1123" y="477.5" as="sourcePoint" />
            <mxPoint x="1223" y="377.5" as="targetPoint" />
            <Array as="points">
              <mxPoint x="1258" y="380" />
              <mxPoint x="1203" y="387.5" />
            </Array>
          </mxGeometry>
        </mxCell>
        <mxCell id="BaqFEa5djKBgRJgzF-M2-267" value="" style="edgeStyle=elbowEdgeStyle;elbow=horizontal;rounded=0;fontColor=#000000;endArrow=none;endFill=0;strokeWidth=8;strokeColor=#23445D;" parent="1" source="BaqFEa5djKBgRJgzF-M2-262" target="BaqFEa5djKBgRJgzF-M2-264" edge="1">
          <mxGeometry width="100" height="100" relative="1" as="geometry">
            <mxPoint x="1193" y="337.5" as="sourcePoint" />
            <mxPoint x="1193" y="437.5" as="targetPoint" />
            <Array as="points">
              <mxPoint x="1258" y="380" />
              <mxPoint x="1203" y="437.5" />
              <mxPoint x="1163" y="397.5" />
            </Array>
          </mxGeometry>
        </mxCell>
        <mxCell id="BaqFEa5djKBgRJgzF-M2-269" value="" style="edgeStyle=elbowEdgeStyle;elbow=vertical;rounded=0;fontColor=#000000;endArrow=none;endFill=0;strokeWidth=8;strokeColor=#23445D;entryX=0.5;entryY=0;entryDx=0;entryDy=0;" parent="1" target="BaqFEa5djKBgRJgzF-M2-262" edge="1">
          <mxGeometry width="100" height="100" relative="1" as="geometry">
            <mxPoint x="1327.5" y="232.5" as="sourcePoint" />
            <mxPoint x="1328" y="292.5" as="targetPoint" />
          </mxGeometry>
        </mxCell>
        <mxCell id="BaqFEa5djKBgRJgzF-M2-270" value="PROTOTİP ARAYÜZÜ TASARIMI" style="whiteSpace=wrap;rounded=1;fillColor=#FFCE9F;strokeColor=none;shadow=1;fontColor=#000000;" parent="1" vertex="1">
          <mxGeometry x="1513" y="310.0000000000001" width="120" height="60" as="geometry" />
        </mxCell>
        <mxCell id="BaqFEa5djKBgRJgzF-M2-271" value="TEST SÜRECİ" style="whiteSpace=wrap;rounded=1;fillColor=#FFCE9F;strokeColor=none;shadow=1;fontColor=#000000;fontStyle=0" parent="1" vertex="1">
          <mxGeometry x="1513" y="397.5000000000001" width="120" height="60" as="geometry" />
        </mxCell>
        <mxCell id="BaqFEa5djKBgRJgzF-M2-273" value="" style="edgeStyle=elbowEdgeStyle;elbow=horizontal;rounded=0;fontColor=#000000;endArrow=none;endFill=0;strokeWidth=8;strokeColor=#23445D;" parent="1" source="BaqFEa5djKBgRJgzF-M2-270" target="BaqFEa5djKBgRJgzF-M2-271" edge="1">
          <mxGeometry width="100" height="100" relative="1" as="geometry">
            <mxPoint x="1368" y="477.5" as="sourcePoint" />
            <mxPoint x="1468" y="377.5" as="targetPoint" />
            <Array as="points">
              <mxPoint x="1502" y="390" />
            </Array>
          </mxGeometry>
        </mxCell>
        <mxCell id="BaqFEa5djKBgRJgzF-M2-275" value="" style="edgeStyle=elbowEdgeStyle;elbow=vertical;rounded=0;fontColor=#000000;endArrow=none;endFill=0;strokeWidth=8;strokeColor=#23445D;entryX=0.5;entryY=0;entryDx=0;entryDy=0;" parent="1" target="BaqFEa5djKBgRJgzF-M2-270" edge="1">
          <mxGeometry width="100" height="100" relative="1" as="geometry">
            <mxPoint x="1572.5" y="232.5" as="sourcePoint" />
            <mxPoint x="1573" y="292.5" as="targetPoint" />
          </mxGeometry>
        </mxCell>
        <mxCell id="BaqFEa5djKBgRJgzF-M2-276" value="YAZILIM GELİŞTİRME AŞAMASI" style="whiteSpace=wrap;rounded=1;fillColor=#FFCE9F;strokeColor=none;shadow=1;fontColor=#000000;" parent="1" vertex="1">
          <mxGeometry x="1757" y="310.0000000000001" width="120" height="60" as="geometry" />
        </mxCell>
        <mxCell id="BaqFEa5djKBgRJgzF-M2-279" value="" style="edgeStyle=elbowEdgeStyle;elbow=horizontal;rounded=0;fontColor=#000000;endArrow=none;endFill=0;strokeWidth=8;strokeColor=#23445D;" parent="1" source="BaqFEa5djKBgRJgzF-M2-276" edge="1">
          <mxGeometry width="100" height="100" relative="1" as="geometry">
            <mxPoint x="1612" y="477.5" as="sourcePoint" />
            <mxPoint x="1757" y="427.4999999999998" as="targetPoint" />
            <Array as="points">
              <mxPoint x="1746" y="390" />
              <mxPoint x="1692" y="387.5" />
            </Array>
          </mxGeometry>
        </mxCell>
        <mxCell id="BaqFEa5djKBgRJgzF-M2-281" value="" style="edgeStyle=elbowEdgeStyle;elbow=vertical;rounded=0;fontColor=#000000;endArrow=none;endFill=0;strokeWidth=8;strokeColor=#23445D;entryX=0.5;entryY=0;entryDx=0;entryDy=0;" parent="1" target="BaqFEa5djKBgRJgzF-M2-276" edge="1">
          <mxGeometry width="100" height="100" relative="1" as="geometry">
            <mxPoint x="1816.5" y="232.5" as="sourcePoint" />
            <mxPoint x="1817" y="292.5" as="targetPoint" />
          </mxGeometry>
        </mxCell>
        <mxCell id="k8Lp7Mmc1cd50rgnimF7-234" value="PROJE SONLANDIRMA" style="whiteSpace=wrap;rounded=1;fillColor=#FFCE9F;strokeColor=none;shadow=1;fontColor=#000000;fontStyle=0" vertex="1" parent="1">
          <mxGeometry x="1757" y="397.5000000000001" width="120" height="60" as="geometry" />
        </mxCell>
      </root>
    </mxGraphModel>
  </diagram>
</mxfile>
